<?xml version="1.0" encoding="UTF-8" standalone="no"?>
<svg
   width="499.99954"
   height="163.52594"
   viewBox="0 0 499.99954 163.52594"
   version="1.1"
   id="svg52"
   sodipodi:docname="Site Logo.svg"
   inkscape:version="1.2.2 (732a01da63, 2022-12-09)"
   xmlns:inkscape="http://www.inkscape.org/namespaces/inkscape"
   xmlns:sodipodi="http://sodipodi.sourceforge.net/DTD/sodipodi-0.dtd"
   xmlns="http://www.w3.org/2000/svg"
   xmlns:svg="http://www.w3.org/2000/svg">
  <defs
     id="defs56" />
  <sodipodi:namedview
     id="namedview54"
     pagecolor="#ffffff"
     bordercolor="#000000"
     borderopacity="0.25"
     inkscape:showpageshadow="2"
     inkscape:pageopacity="0.0"
     inkscape:pagecheckerboard="0"
     inkscape:deskcolor="#d1d1d1"
     showgrid="false"
     inkscape:zoom="1.3452818"
     inkscape:cx="243.44342"
     inkscape:cy="126.73925"
     inkscape:window-width="1574"
     inkscape:window-height="1230"
     inkscape:window-x="1822"
     inkscape:window-y="75"
     inkscape:window-maximized="0"
     inkscape:current-layer="svg52" />
  <title
     id="title2">Group 4</title>
  <g
     stroke="none"
     stroke-width="1"
     fill="none"
     fill-rule="evenodd"
     transform="scale(3.1454453)"
     id="g185">
    <g
       id="Group-4"
       fill-rule="nonzero">
      <g
         id="news24-flat-2">
        <path
           d="m 0.13385812,10.20482 v 0.34067 24.973234 0.34067 H 0.47143211 6.6359465 6.9735205 V 35.518724 24.061071 C 6.942315,22.958894 7.0854719,21.868554 7.397373,20.82201 c 0.9169492,-2.969383 3.289988,-4.852211 6.329005,-4.852211 2.643894,0 3.594819,1.444244 3.594819,4.754092 v 14.794833 0.34067 h 0.337574 6.117667 0.337574 v -0.34067 -16.054619 c 0,-6.599869 -3.063693,-9.8460728 -8.929865,-9.8460728 -4.352171,0 -7.5121238,2.2738858 -9.0883592,5.3773788 L 6.733774,15.150799 V 10.54549 10.20482 H 6.3962001 0.47143211 Z"
           id="Shape"
           fill="#21418d" />
        <path
           d="m 48.928837,10.20482 0.133589,0.44039 7.575436,24.973234 0.07309,0.24095 h 0.249698 6.889265 0.25238 l 0.0714,-0.244289 4.166628,-14.255322 c 0.170072,-0.583063 0.327948,-1.125182 0.469633,-1.612373 0.04959,-0.170523 0.09362,-0.322002 0.131572,-0.452667 0.03847,-0.132448 0.03847,-0.132448 0.04657,-0.160389 l -0.646808,0.0038 c 0.0085,0.02798 0.02485,0.08224 0.04853,0.160923 0.0395,0.131238 0.08507,0.283156 0.136089,0.453884 0.145812,0.487894 0.306087,1.028609 0.475915,1.607187 l 4.185927,14.255356 0.07161,0.243879 h 0.252049 6.836907 0.250097 l 0.07284,-0.241448 7.5341,-24.973234 0.13271,-0.439892 h -0.455649 -6.407016 -0.259578 l -0.06667,0.25317 -4.320947,16.407804 -0.551652,2.146099 0.646464,-0.02383 c -0.0081,-0.024 -0.02391,-0.07238 -0.04672,-0.14389 -0.03833,-0.120158 -0.08196,-0.26097 -0.130067,-0.421193 -0.137767,-0.458846 -0.283509,-0.980473 -0.430598,-1.554918 l -4.565338,-16.37037 -0.06927,-0.248377 H 71.425351 65.93874 65.683059 l -0.06927,0.248377 -4.563449,16.363308 c -0.149019,0.586376 -0.283758,1.112042 -0.403343,1.5748 -0.04184,0.161925 -0.0788,0.304407 -0.110507,0.426208 -0.01901,0.07302 -0.03205,0.122959 -0.0387,0.148341 l 0.646392,-0.0213 c -0.008,-0.02407 -0.02373,-0.07251 -0.04637,-0.144086 -0.03803,-0.120231 -0.08137,-0.261119 -0.129201,-0.421419 -0.136967,-0.459024 -0.282249,-0.980837 -0.429389,-1.555478 L 56.217685,10.45799 56.151013,10.20482 h -0.259577 -6.506222 z"
           id="path5"
           fill="#21418d" />
        <path
           d="m 25.786727,23.024627 c -2e-6,7.629153 5.584861,13.410431 13.639366,13.410431 3.707087,0.02346 7.306351,-1.270116 10.16587,-3.654389 l 0.213675,-0.178163 -0.13158,-0.246188 -2.378175,-4.449574 -0.199388,-0.373056 -0.318129,0.276746 c -0.02111,0.01836 -0.06561,0.05551 -0.13233,0.108753 -0.11323,0.09036 -0.246396,0.191475 -0.398327,0.300674 -0.435884,0.313287 -0.933073,0.627019 -1.482065,0.919831 -1.56327,0.833789 -3.22325,1.332937 -4.90415,1.332937 -3.838531,0 -6.756139,-2.397 -7.104189,-6.30302 l -0.336217,0.371182 h 17.085377 0.309024 l 0.02724,-0.310645 c 0.0046,-0.0527 0.01267,-0.147343 0.02299,-0.273795 0.0172,-0.210603 0.0344,-0.432721 0.05046,-0.656273 0.01112,-0.154776 0.0213,-0.304936 0.03034,-0.448677 0.02789,-0.443431 0.04357,-0.80256 0.04357,-1.05127 0,-7.198634 -4.328523,-12.1960037 -11.310795,-12.1960037 -7.577889,0 -12.91231,5.5513737 -12.892569,13.4204997 z M 43.110403,20.280324 H 43.4384 l 0.0028,-0.681341 H 32.613987 l 0.332188,0.401282 c 0.555323,-3.099554 2.613702,-4.912038 5.589824,-4.912038 2.673525,0 4.477864,1.807253 4.564967,4.861228 z"
           id="path7"
           fill="#21418d" />
        <path
           d="m 90.678085,27.526891 -0.226876,0.353659 -2.808064,4.377268 -0.14426,0.224877 0.182527,0.194508 c 0.0315,0.03357 0.08979,0.09219 0.174546,0.17228 0.138497,0.130873 0.302773,0.27599 0.492505,0.431754 0.539104,0.442588 1.175938,0.884279 1.907935,1.296112 2.088505,1.175025 4.524351,1.879957 7.282023,1.879957 5.840759,0 9.803429,-3.293802 9.803429,-7.849327 0,-3.612401 -2.0921,-5.733034 -6.22154,-7.565357 -0.6572,-0.291613 -2.81376,-1.167459 -3.133074,-1.305618 -1.89327,-0.819174 -2.68507,-1.452027 -2.68507,-2.252959 0,-1.192614 1.152442,-1.911927 2.817709,-1.911927 2.133055,-0.02159 4.202295,0.71403 5.848345,2.077888 l 0.32696,0.270905 0.18918,-0.381848 2.28173,-4.605309 0.10682,-0.215612 -0.16593,-0.173399 c -0.0961,-0.100377 -0.27876,-0.266872 -0.54884,-0.477156 -0.44381,-0.345552 -0.97633,-0.689933 -1.5982,-1.010627 -1.76867,-0.912078 -3.90123,-1.4583947 -6.398729,-1.4583947 -5.741259,0 -9.803424,3.0012627 -9.803424,7.6908107 0,1.967308 0.6869,3.558885 1.979755,4.867083 1.031645,1.043889 2.367994,1.856695 4.240779,2.695045 0.614518,0.275088 2.640818,1.114113 2.941958,1.245751 2.035327,0.889706 2.877191,1.568105 2.877191,2.460667 0,1.150877 -1.191974,1.911926 -2.914163,1.911926 -1.698309,0 -3.285375,-0.497108 -4.717016,-1.327138 -0.502007,-0.291051 -0.948173,-0.602783 -1.332573,-0.913902 -0.133784,-0.108279 -0.250018,-0.208457 -0.347974,-0.297853 -0.0574,-0.05239 -0.09513,-0.08867 -0.11246,-0.106158 z"
           id="path9"
           fill="#21418d" />
        <path
           d="m 111.71255,35.600932 0.0478,0.283033 h 0.28345 22.01969 0.33608 V 35.54351 31.321867 30.981412 h -0.33608 -16.93822 l 0.33605,0.344567 c 0.0301,-2.521119 1.62761,-4.404059 5.4242,-7.086121 0.53251,-0.376188 2.42278,-1.674517 2.63345,-1.821118 5.83193,-4.058403 8.3496,-7.15369 8.3496,-12.123378 C 133.86858,4.1782112 129.27822,0 122.73775,0 c -4.64037,0.01202612 -8.89818,2.605375 -11.08446,6.7508056 l -0.14348,0.2720384 0.25311,0.1714222 3.54896,2.4036128 0.30444,0.2061867 0.17671,-0.3249312 c 0.0159,-0.029199 0.0502,-0.08857 0.10274,-0.1737731 0.0892,-0.1446927 0.19637,-0.3066315 0.3212,-0.481479 0.35776,-0.501095 0.78406,-1.0026227 1.27683,-1.4700827 1.3956,-1.3239218 3.03391,-2.1147668 4.90837,-2.117601 3.42022,4e-7 5.80689,2.2125597 5.80689,5.3996183 0,2.523931 -1.54415,4.441054 -5.17249,7.094378 -0.60597,0.443132 -2.78737,1.980489 -3.05731,2.174138 -5.9015,4.233599 -8.5135,7.612228 -8.5135,12.990437 0.0135,0.910571 0.096,1.813598 0.24679,2.706162 z"
           id="path11"
           fill="#dd1f26" />
        <path
           d="m 150.0876,22.497271 h 0.33608 l 0.0269,-0.68091 H 139.8104 l 0.27303,0.538971 L 150.69671,7.3753083 150.0876,7.176793 v 14.980023 z m -15.82281,-0.449526 3.6e-4,0.110197 0.0134,4.119506 0.001,0.33933 h 0.33497 15.83589 l -0.33607,-0.340455 v 9.267187 0.340455 h 0.33607 4.67146 0.33607 V 35.54351 26.242277 l -0.33607,0.340455 h 3.50191 0.33608 v -0.340455 -4.085461 -0.340455 h -0.33608 -3.50191 l 0.33607,0.340455 V 0.92603781 0.58558273 h -0.33607 -5.47132 -0.17241 L 149.37772,0.72745659 134.32824,21.958235 Z"
           id="path13"
           fill="#dd1f26" />
      </g>
      <g
         id="Trusted-News.-First-Copy"
         transform="translate(0,43)"
         fill="#000000">
        <polygon
           id="Path"
           points="7.4071456,1.3818372 7.4071456,0 0,0 0,1.3818372 2.9006133,1.3818372 2.9006133,8.8387788 4.5065323,8.8387788 4.5065323,1.3818372 " />
        <path
           d="m 8.3283704,8.8387788 h 1.581021 V 6.324084 c 0,-0.3734696 0.037347,-0.7220411 0.1369386,-1.0332657 0.298776,-0.9461228 1.058164,-1.3320413 1.730409,-1.3320413 0.211633,0 0.37347,0.024898 0.37347,0.024898 V 2.427552 c 0,0 -0.136939,-0.024898 -0.286327,-0.024898 -0.971021,0 -1.730409,0.722041 -2.0167355,1.6308169 h -0.024898 c 0,0 0.024898,-0.2116328 0.024898,-0.4481635 V 2.4897968 H 8.3283704 Z"
           id="path17" />
        <path
           d="m 13.133678,6.5730636 c 0,1.7304088 0.846531,2.415103 2.203471,2.415103 1.083061,0 1.892245,-0.6597962 2.20347,-1.3195924 h 0.0249 c 0,0 -0.0249,0.1991838 -0.0249,0.4481635 v 0.7220411 h 1.518776 v -6.348982 h -1.581021 v 2.9130623 c 0,1.1328576 -0.634898,2.1412253 -1.780205,2.1412253 -0.784286,0 -0.98347,-0.5228573 -0.98347,-1.2946943 V 2.4897968 h -1.581021 z"
           id="path19" />
        <path
           d="m 20.266946,8.0544928 c 0,0 0.883878,0.9336738 2.464899,0.9336738 1.506327,0 2.427552,-0.8465309 2.427552,-1.9046946 0,-2.0416334 -3.087348,-1.9295926 -3.087348,-2.8259194 0,-0.3983675 0.398367,-0.5726533 0.809184,-0.5726533 0.971021,0 1.556123,0.5477553 1.556123,0.5477553 l 0.585102,-1.1702045 c 0,0 -0.697143,-0.7220411 -2.128776,-0.7220411 -1.369388,0 -2.427552,0.6846942 -2.427552,1.8673477 0,2.0416334 3.087348,1.9171435 3.087348,2.8632663 0,0.3734695 -0.385919,0.5726533 -0.834082,0.5726533 -1.033266,0 -1.730409,-0.6971431 -1.730409,-0.6971431 z"
           id="path21" />
        <path
           d="m 26.703071,6.5108187 c 0,2.1287763 1.755307,2.390205 2.639185,2.390205 0.298775,0 0.48551,-0.037347 0.48551,-0.037347 V 7.4818395 c 0,0 -0.112041,0.024898 -0.286327,0.024898 -0.435714,0 -1.257347,-0.1493879 -1.257347,-1.1951025 V 3.8467361 h 1.444082 V 2.5893887 H 28.284092 V 0.75938803 H 26.740418 V 2.5893887 h -0.85898 v 1.2573474 h 0.821633 z"
           id="path23" />
        <path
           d="m 30.674297,5.6642878 c 0,1.8051027 1.307143,3.3238788 3.411022,3.3238788 1.581021,0 2.552041,-0.9087759 2.552041,-0.9087759 l -0.61,-1.1328575 c 0,0 -0.809184,0.6971431 -1.830001,0.6971431 -0.946122,0 -1.805102,-0.5726533 -1.904694,-1.6806129 h 4.382042 c 0,0 0.03735,-0.4232654 0.03735,-0.6100002 0,-1.6806129 -0.983469,-3.0126542 -2.81347,-3.0126542 -1.892246,0 -3.224287,1.3693883 -3.224287,3.3238788 z m 1.668164,-0.784286 c 0.149388,-0.821633 0.709592,-1.3195923 1.518776,-1.3195923 0.697143,0 1.232449,0.4606124 1.257347,1.3195923 z"
           id="path25" />
        <path
           d="m 37.583483,5.6642878 c 0,1.9669395 1.095511,3.3238788 2.813471,3.3238788 1.456531,0 1.991837,-1.0830617 1.991837,-1.0830617 h 0.0249 c 0,0 -0.0249,0.1742858 -0.0249,0.4108165 v 0.5228574 h 1.493878 V 0 h -1.581021 v 2.7885725 c 0,0.1991837 0.01245,0.3610205 0.01245,0.3610205 h -0.0249 c 0,0 -0.435714,-0.809184 -1.83,-0.809184 -1.680613,0 -2.875716,1.3071434 -2.875715,3.3238788 z m 1.59347,0 c 0,-1.2573474 0.722041,-1.9669395 1.59347,-1.9669395 1.058164,0 1.581021,0.9710208 1.581021,1.9544905 0,1.4067352 -0.771837,2.0042865 -1.59347,2.0042865 -0.933674,0 -1.581021,-0.784286 -1.581021,-1.9918375 z"
           id="path27" />
        <path
           d="m 48.89961,8.8387788 h 1.605919 V 3.7471442 c 0,-0.5228573 -0.08714,-1.3693882 -0.08714,-1.3693882 h 0.0249 c 0,0 0.398367,0.8589799 0.73449,1.3693882 l 3.348777,5.0916346 h 1.59347 V 0 h -1.59347 v 5.1040835 c 0,0.5228574 0.08714,1.3693883 0.08714,1.3693883 h -0.0249 c 0,0 -0.398368,-0.8589799 -0.73449,-1.3693883 L 50.505529,0 H 48.89961 Z"
           id="path29" />
        <path
           d="m 57.663695,5.6642878 c 0,1.8051027 1.307143,3.3238788 3.411021,3.3238788 1.581021,0 2.552042,-0.9087759 2.552042,-0.9087759 l -0.61,-1.1328575 c 0,0 -0.809184,0.6971431 -1.830001,0.6971431 -0.946123,0 -1.805102,-0.5726533 -1.904694,-1.6806129 h 4.382042 c 0,0 0.03735,-0.4232654 0.03735,-0.6100002 0,-1.6806129 -0.98347,-3.0126542 -2.81347,-3.0126542 -1.892246,0 -3.224287,1.3693883 -3.224287,3.3238788 z m 1.668164,-0.784286 c 0.149387,-0.821633 0.709592,-1.3195923 1.518776,-1.3195923 0.697143,0 1.232449,0.4606124 1.257347,1.3195923 z"
           id="path31" />
        <path
           d="m 66.253494,8.8387788 h 1.767755 L 69.091862,5.2161244 C 69.191454,4.8800018 69.24125,4.5314302 69.24125,4.5314302 h 0.0249 c 0,0 0.06225,0.3485716 0.161837,0.6846942 l 1.070612,3.6226544 h 1.755307 l 1.929593,-6.348982 h -1.643266 l -1.10796,4.1704097 c -0.08714,0.3361226 -0.136939,0.6722452 -0.136939,0.6722452 h -0.0249 c 0,0 -0.04979,-0.3361226 -0.136938,-0.6722452 L 69.963291,2.5022458 h -1.406735 l -1.170205,4.1579607 c -0.08714,0.3361226 -0.149387,0.6722452 -0.149387,0.6722452 h -0.0249 c 0,0 -0.03735,-0.3361226 -0.12449,-0.6722452 L 65.979614,2.4897968 H 64.31145 Z"
           id="path33" />
        <path
           d="m 74.693905,8.0544928 c 0,0 0.883878,0.9336738 2.464899,0.9336738 1.506327,0 2.427552,-0.8465309 2.427552,-1.9046946 0,-2.0416334 -3.087348,-1.9295926 -3.087348,-2.8259194 0,-0.3983675 0.398367,-0.5726533 0.809184,-0.5726533 0.97102,0 1.556123,0.5477553 1.556123,0.5477553 l 0.585102,-1.1702045 c 0,0 -0.697143,-0.7220411 -2.128776,-0.7220411 -1.369389,0 -2.427552,0.6846942 -2.427552,1.8673477 0,2.0416334 3.087348,1.9171435 3.087348,2.8632663 0,0.3734695 -0.385919,0.5726533 -0.834082,0.5726533 -1.033266,0 -1.730409,-0.6971431 -1.730409,-0.6971431 z"
           id="path35" />
        <polygon
           id="polygon37"
           points="80.793907,7.2577578 80.793907,8.8387788 82.374928,8.8387788 82.374928,7.2577578 " />
        <polygon
           id="polygon39"
           points="91.861054,5.2659203 91.861054,3.8840831 88.935543,3.8840831 88.935543,1.3818372 92.40881,1.3818372 92.40881,0 87.329624,0 87.329624,8.8387788 88.935543,8.8387788 88.935543,5.2659203 " />
        <path
           d="m 93.666157,1.4067352 h 1.568572 V 0 h -1.568572 z m 0,7.4320436 h 1.581021 v -6.348982 h -1.581021 z"
           id="path41" />
        <path
           d="m 96.990036,8.8387788 h 1.581021 V 6.324084 c 0,-0.3734696 0.03735,-0.7220411 0.136938,-1.0332657 0.298776,-0.9461228 1.058164,-1.3320413 1.730405,-1.3320413 0.21164,0 0.37347,0.024898 0.37347,0.024898 V 2.427552 c 0,0 -0.13693,-0.024898 -0.28632,-0.024898 -0.971024,0 -1.730412,0.722041 -2.016738,1.6308169 h -0.0249 c 0,0 0.0249,-0.2116328 0.0249,-0.4481635 V 2.4897968 h -1.518776 z"
           id="path43" />
        <path
           d="m 101.34718,8.0544928 c 0,0 0.88388,0.9336738 2.4649,0.9336738 1.50633,0 2.42755,-0.8465309 2.42755,-1.9046946 0,-2.0416334 -3.08735,-1.9295926 -3.08735,-2.8259194 0,-0.3983675 0.39837,-0.5726533 0.80919,-0.5726533 0.97102,0 1.55612,0.5477553 1.55612,0.5477553 l 0.5851,-1.1702045 c 0,0 -0.69714,-0.7220411 -2.12877,-0.7220411 -1.36939,0 -2.42756,0.6846942 -2.42756,1.8673477 0,2.0416334 3.08735,1.9171435 3.08735,2.8632663 0,0.3734695 -0.38592,0.5726533 -0.83408,0.5726533 -1.03327,0 -1.73041,-0.6971431 -1.73041,-0.6971431 z"
           id="path45" />
        <path
           d="m 107.78331,6.5108187 c 0,2.1287763 1.7553,2.390205 2.63918,2.390205 0.29878,0 0.48551,-0.037347 0.48551,-0.037347 V 7.4818395 c 0,0 -0.11204,0.024898 -0.28633,0.024898 -0.43571,0 -1.25734,-0.1493879 -1.25734,-1.1951025 V 3.8467361 h 1.44408 V 2.5893887 h -1.44408 V 0.75938803 h -1.54368 V 2.5893887 h -0.85898 v 1.2573474 h 0.82164 z"
           id="path47" />
      </g>
    </g>
  </g>
</svg>
